<svg width="118" height="118" viewBox="0 0 118 118" fill="none" xmlns="http://www.w3.org/2000/svg">
<g clip-path="url(#clip0_401_1715)">
<path d="M88.465 56.5084L84.2518 39.5C83.9411 38.2576 82.9757 37.2855 81.7332 36.9782L73.0296 34.8008L81.733 32.6233C82.9618 32.3161 83.9273 31.3606 84.2446 30.1317L85.4196 25.5673C85.4938 25.287 85.5276 24.9259 85.5276 24.6355C85.5276 24.0075 85.3589 23.3898 85.028 22.8496C80.3354 15.0646 73.2863 10.6016 65.6836 10.6016C59.2083 10.6016 55.9539 12.8602 53.3408 14.6765C51.0587 16.263 49.2491 17.5156 44.9414 17.5156C40.6337 17.5156 38.8241 16.263 36.542 14.6765C33.9289 12.8602 30.6745 10.6016 24.1992 10.6016C10.8572 10.6016 0 24.5581 0 41.7148C0 76.8387 20.3709 111.19 21.2352 112.635C21.8563 113.674 22.984 114.312 24.1992 114.312C33.9492 114.312 36.1705 103.188 37.9598 94.2488C39.6614 85.7549 41.1534 79.7422 44.9414 79.7422C48.7294 79.7422 50.2214 85.7549 51.923 94.2488C53.7124 103.188 55.9336 114.312 65.6836 114.312C66.8989 114.312 68.0199 113.674 68.6477 112.635C69.2688 111.595 83.9814 86.8319 88.5256 57.8758C88.5931 57.4201 88.5728 56.9541 88.465 56.5084V56.5084Z" fill="url(#paint0_linear_401_1715)"/>
<path d="M115.38 31.4484L94.8052 26.4214L89.7816 6.30724C89.3968 4.76794 88.0126 3.6875 86.4258 3.6875C84.839 3.6875 83.4548 4.76794 83.0699 6.3107L78.06 26.4147L57.9322 31.4484C56.3929 31.8298 55.3125 33.214 55.3125 34.8008C55.3125 36.3876 56.3929 37.7718 57.9322 38.1532L78.0397 43.1802L83.0766 63.3181C83.4684 64.8472 84.8459 65.9141 86.4258 65.9141H86.4394C88.0192 65.9074 89.3968 64.8304 89.7816 63.2943L94.8052 43.1802L115.38 38.1532C116.92 37.7718 118 36.3876 118 34.8008C118 33.214 116.92 31.8298 115.38 31.4484V31.4484Z" fill="#7B55EC"/>
</g>
<defs>
<linearGradient id="paint0_linear_401_1715" x1="44.2823" y1="114.312" x2="44.2823" y2="10.6016" gradientUnits="userSpaceOnUse">
<stop stop-color="#ADDCFF"/>
<stop offset="0.5028" stop-color="#EAF6FF"/>
<stop offset="1" stop-color="#EAF6FF"/>
</linearGradient>
<clipPath id="clip0_401_1715">
<rect width="118" height="118" fill="white"/>
</clipPath>
</defs>
</svg>
