<svg width="249" height="66" viewBox="0 0 249 66" fill="none" xmlns="http://www.w3.org/2000/svg">
<path d="M86.664 52.192C85.7253 52.192 84.8933 51.936 84.168 51.424C83.4533 50.912 82.8933 50.192 82.488 49.264C82.0933 48.3253 81.896 47.248 81.896 46.032C81.896 44.816 82.0933 43.744 82.488 42.816C82.8933 41.888 83.4533 41.168 84.168 40.656C84.8827 40.144 85.7093 39.888 86.648 39.888C87.5973 39.888 88.4347 40.144 89.16 40.656C89.8853 41.168 90.4453 41.888 90.84 42.816C91.2453 43.744 91.448 44.816 91.448 46.032C91.448 47.248 91.2453 48.3253 90.84 49.264C90.4453 50.192 89.8853 50.912 89.16 51.424C88.4453 51.936 87.6133 52.192 86.664 52.192ZM84.072 46.032C84.072 47.3227 84.3013 48.3413 84.76 49.088C85.2187 49.8347 85.8533 50.208 86.664 50.208C87.4747 50.208 88.1093 49.84 88.568 49.104C89.0373 48.3573 89.272 47.3333 89.272 46.032C89.272 44.7413 89.0373 43.728 88.568 42.992C88.1093 42.2453 87.4693 41.872 86.648 41.872C85.8373 41.872 85.2027 42.24 84.744 42.976C84.296 43.712 84.072 44.7307 84.072 46.032ZM96.6961 52.192C96.0455 52.192 95.4268 52.0693 94.8401 51.824C94.2641 51.5787 93.7681 51.232 93.3521 50.784C92.9468 50.336 92.6695 49.8187 92.5201 49.232L94.4241 48.56C94.6161 49.0933 94.9095 49.504 95.3041 49.792C95.6988 50.08 96.1628 50.224 96.6961 50.224C97.3361 50.224 97.8481 50.0427 98.2321 49.68C98.6268 49.3173 98.8241 48.8267 98.8241 48.208C98.8241 47.6 98.6268 47.12 98.2321 46.768C97.8481 46.4053 97.3308 46.224 96.6801 46.224C96.2321 46.224 95.8268 46.3093 95.4641 46.48L94.9681 45.44L98.0561 41.92H93.1921V40.08H100.504V41.792L98.0561 44.656C98.9521 44.7947 99.6668 45.1787 100.2 45.808C100.733 46.4267 101 47.2053 101 48.144C101 48.9013 100.813 49.5893 100.44 50.208C100.067 50.8267 99.5495 51.312 98.8881 51.664C98.2375 52.016 97.5068 52.192 96.6961 52.192ZM110.041 49.376H104.569V47.552L109.913 40.08H112.185V47.552H113.929V49.376H112.185V52H110.041V49.376ZM110.041 47.552V42.768L106.713 47.552H110.041ZM119.198 52.192C118.355 52.192 117.614 52.032 116.974 51.712C116.334 51.3813 115.838 50.944 115.486 50.4C115.134 49.8453 114.958 49.232 114.958 48.56C114.958 47.9093 115.107 47.3387 115.406 46.848C115.715 46.3573 116.158 45.9627 116.734 45.664C116.329 45.4187 116.009 45.072 115.774 44.624C115.55 44.1653 115.438 43.6693 115.438 43.136C115.438 42.5173 115.598 41.9627 115.918 41.472C116.238 40.9813 116.681 40.5973 117.246 40.32C117.822 40.032 118.473 39.888 119.198 39.888C119.913 39.888 120.553 40.0267 121.118 40.304C121.694 40.5813 122.142 40.9707 122.462 41.472C122.782 41.9627 122.942 42.5173 122.942 43.136C122.942 43.6587 122.83 44.144 122.606 44.592C122.382 45.04 122.067 45.3973 121.662 45.664C122.238 45.9733 122.675 46.3733 122.974 46.864C123.283 47.3547 123.438 47.9253 123.438 48.576C123.438 49.2373 123.262 49.8453 122.91 50.4C122.558 50.944 122.057 51.3813 121.406 51.712C120.766 52.032 120.03 52.192 119.198 52.192ZM117.15 48.496C117.15 49.0507 117.337 49.4987 117.71 49.84C118.083 50.1813 118.579 50.352 119.198 50.352C119.817 50.352 120.313 50.1813 120.686 49.84C121.07 49.4987 121.262 49.0507 121.262 48.496C121.262 47.9413 121.07 47.4987 120.686 47.168C120.313 46.8267 119.817 46.656 119.198 46.656C118.579 46.656 118.083 46.8267 117.71 47.168C117.337 47.4987 117.15 47.9413 117.15 48.496ZM117.614 43.264C117.614 43.712 117.758 44.0853 118.046 44.384C118.345 44.672 118.729 44.816 119.198 44.816C119.657 44.816 120.03 44.672 120.318 44.384C120.617 44.0853 120.766 43.712 120.766 43.264C120.766 42.816 120.617 42.448 120.318 42.16C120.03 41.872 119.657 41.728 119.198 41.728C118.729 41.728 118.345 41.872 118.046 42.16C117.758 42.448 117.614 42.816 117.614 43.264ZM124.667 50.352L127.899 46.976C128.593 46.2507 129.099 45.7013 129.419 45.328C129.739 44.944 129.969 44.6133 130.107 44.336C130.246 44.048 130.315 43.7547 130.315 43.456C130.315 42.9653 130.161 42.576 129.851 42.288C129.542 41.9893 129.137 41.84 128.635 41.84C128.113 41.84 127.665 41.9893 127.291 42.288C126.929 42.576 126.662 43.0027 126.491 43.568L124.587 42.976C124.715 42.3573 124.971 41.8187 125.355 41.36C125.75 40.8907 126.235 40.528 126.811 40.272C127.387 40.016 127.995 39.888 128.635 39.888C129.393 39.888 130.065 40.032 130.651 40.32C131.238 40.5973 131.691 40.992 132.011 41.504C132.342 42.0053 132.507 42.5813 132.507 43.232C132.507 43.872 132.331 44.496 131.979 45.104C131.638 45.7013 131.078 46.4053 130.299 47.216L127.499 50.16H132.667V52H124.667V50.352ZM140.37 52.192C139.719 52.192 139.101 52.0693 138.514 51.824C137.938 51.5787 137.442 51.232 137.026 50.784C136.621 50.336 136.343 49.8187 136.194 49.232L138.098 48.56C138.29 49.0933 138.583 49.504 138.978 49.792C139.373 50.08 139.837 50.224 140.37 50.224C141.01 50.224 141.522 50.0427 141.906 49.68C142.301 49.3173 142.498 48.8267 142.498 48.208C142.498 47.6 142.301 47.12 141.906 46.768C141.522 46.4053 141.005 46.224 140.354 46.224C139.906 46.224 139.501 46.3093 139.138 46.48L138.642 45.44L141.73 41.92H136.866V40.08H144.178V41.792L141.73 44.656C142.626 44.7947 143.341 45.1787 143.874 45.808C144.407 46.4267 144.674 47.2053 144.674 48.144C144.674 48.9013 144.487 49.5893 144.114 50.208C143.741 50.8267 143.223 51.312 142.562 51.664C141.911 52.016 141.181 52.192 140.37 52.192ZM150.039 47.632C149.847 47.6533 149.692 47.664 149.575 47.664C148.86 47.664 148.215 47.4987 147.639 47.168C147.074 46.8373 146.626 46.384 146.295 45.808C145.975 45.232 145.815 44.5867 145.815 43.872C145.815 43.1147 145.991 42.432 146.343 41.824C146.695 41.216 147.186 40.7413 147.815 40.4C148.455 40.0587 149.17 39.888 149.959 39.888C150.748 39.888 151.458 40.0587 152.087 40.4C152.716 40.7413 153.207 41.216 153.559 41.824C153.922 42.4213 154.103 43.0933 154.103 43.84C154.103 44.4693 153.996 45.0773 153.783 45.664C153.57 46.24 153.17 46.912 152.583 47.68L149.255 52H146.647L150.039 47.632ZM147.991 43.856C147.991 44.4427 148.178 44.9227 148.551 45.296C148.924 45.6587 149.394 45.84 149.959 45.84C150.514 45.84 150.978 45.6587 151.351 45.296C151.724 44.9227 151.911 44.4427 151.911 43.856C151.911 43.2693 151.724 42.7893 151.351 42.416C150.978 42.032 150.514 41.84 149.959 41.84C149.404 41.84 148.935 42.032 148.551 42.416C148.178 42.7893 147.991 43.2693 147.991 43.856ZM160.262 49.376H154.79V47.552L160.134 40.08H162.406V47.552H164.15V49.376H162.406V52H160.262V49.376ZM160.262 47.552V42.768L156.934 47.552H160.262ZM169.654 41.936H167.35V40.08H171.83V52H169.654V41.936ZM173.755 50.352L176.987 46.976C177.681 46.2507 178.187 45.7013 178.507 45.328C178.827 44.944 179.057 44.6133 179.195 44.336C179.334 44.048 179.403 43.7547 179.403 43.456C179.403 42.9653 179.249 42.576 178.939 42.288C178.63 41.9893 178.225 41.84 177.723 41.84C177.201 41.84 176.753 41.9893 176.379 42.288C176.017 42.576 175.75 43.0027 175.579 43.568L173.675 42.976C173.803 42.3573 174.059 41.8187 174.443 41.36C174.838 40.8907 175.323 40.528 175.899 40.272C176.475 40.016 177.083 39.888 177.723 39.888C178.481 39.888 179.153 40.032 179.739 40.32C180.326 40.5973 180.779 40.992 181.099 41.504C181.43 42.0053 181.595 42.5813 181.595 43.232C181.595 43.872 181.419 44.496 181.067 45.104C180.726 45.7013 180.166 46.4053 179.387 47.216L176.587 50.16H181.755V52H173.755V50.352ZM186.934 52.192C186.284 52.192 185.665 52.0693 185.078 51.824C184.502 51.5787 184.006 51.232 183.59 50.784C183.185 50.336 182.908 49.8187 182.758 49.232L184.662 48.56C184.854 49.0933 185.148 49.504 185.542 49.792C185.937 50.08 186.401 50.224 186.934 50.224C187.574 50.224 188.086 50.0427 188.47 49.68C188.865 49.3173 189.062 48.8267 189.062 48.208C189.062 47.6 188.865 47.12 188.47 46.768C188.086 46.4053 187.569 46.224 186.918 46.224C186.47 46.224 186.065 46.3093 185.702 46.48L185.206 45.44L188.294 41.92H183.43V40.08H190.742V41.792L188.294 44.656C189.19 44.7947 189.905 45.1787 190.438 45.808C190.972 46.4267 191.238 47.2053 191.238 48.144C191.238 48.9013 191.052 49.5893 190.678 50.208C190.305 50.8267 189.788 51.312 189.126 51.664C188.476 52.016 187.745 52.192 186.934 52.192Z" fill="#181945"/>
<path d="M81.864 16.06H84.78C85.716 16.06 86.536 16.248 87.24 16.624C87.944 17 88.488 17.528 88.872 18.208C89.256 18.88 89.448 19.652 89.448 20.524C89.448 21.388 89.256 22.16 88.872 22.84C88.488 23.52 87.94 24.052 87.228 24.436C86.524 24.812 85.708 25 84.78 25H81.864V16.06ZM84.816 23.56C85.416 23.56 85.94 23.436 86.388 23.188C86.844 22.94 87.192 22.588 87.432 22.132C87.68 21.668 87.804 21.132 87.804 20.524C87.804 19.916 87.68 19.384 87.432 18.928C87.192 18.472 86.844 18.12 86.388 17.872C85.94 17.624 85.416 17.5 84.816 17.5H83.496V23.56H84.816ZM91.7068 16.06H97.6468V17.5H93.3388V19.792H97.4068V21.232H93.3388V23.56H97.6468V25H91.7068V16.06ZM99.8035 16.06H101.076L105.336 21.796V16.06H106.968V25H105.684L101.436 19.156V25H99.8035V16.06ZM111.242 17.5H108.926V16.06H115.166V17.5H112.886V25H111.242V17.5ZM118.876 16.06H120.988L124.072 25H122.296L121.66 23.08H118.204L117.556 25H115.792L118.876 16.06ZM121.192 21.64L119.932 17.872L118.672 21.64H121.192ZM126.027 16.06H127.659V23.56H131.487V25H126.027V16.06ZM136.284 23.764L138.708 21.232C139.228 20.688 139.608 20.276 139.848 19.996C140.088 19.708 140.26 19.46 140.364 19.252C140.468 19.036 140.52 18.816 140.52 18.592C140.52 18.224 140.404 17.932 140.172 17.716C139.94 17.492 139.636 17.38 139.26 17.38C138.868 17.38 138.532 17.492 138.252 17.716C137.98 17.932 137.78 18.252 137.652 18.676L136.224 18.232C136.32 17.768 136.512 17.364 136.8 17.02C137.096 16.668 137.46 16.396 137.892 16.204C138.324 16.012 138.78 15.916 139.26 15.916C139.828 15.916 140.332 16.024 140.772 16.24C141.212 16.448 141.552 16.744 141.792 17.128C142.04 17.504 142.164 17.936 142.164 18.424C142.164 18.904 142.032 19.372 141.768 19.828C141.512 20.276 141.092 20.804 140.508 21.412L138.408 23.62H142.284V25H136.284V23.764ZM148.271 23.032H144.167V21.664L148.175 16.06H149.879V21.664H151.187V23.032H149.879V25H148.271V23.032ZM148.271 21.664V18.076L145.775 21.664H148.271ZM153.41 16.06H155.042V19.96H158.846V16.06H160.49V25H158.846V21.4H155.042V25H153.41V16.06ZM166.264 16.06H172.204V17.5H167.896V19.792H171.964V21.232H167.896V23.56H172.204V25H166.264V16.06ZM174.361 16.06H175.921L178.897 20.092L181.801 16.06H183.361V25H181.717V18.928L178.957 22.6H178.765L175.993 18.808V25H174.361V16.06ZM186.032 16.06H191.972V17.5H187.664V19.792H191.732V21.232H187.664V23.56H191.972V25H186.032V16.06ZM194.128 16.06H197.452C198.06 16.06 198.6 16.172 199.072 16.396C199.544 16.612 199.908 16.932 200.164 17.356C200.428 17.78 200.56 18.288 200.56 18.88C200.56 19.488 200.416 20.012 200.128 20.452C199.84 20.884 199.444 21.204 198.94 21.412L200.992 25H199.144L197.296 21.7H195.76V25H194.128V16.06ZM197.476 20.26C197.916 20.26 198.268 20.136 198.532 19.888C198.796 19.632 198.928 19.296 198.928 18.88C198.928 18.464 198.796 18.132 198.532 17.884C198.268 17.628 197.916 17.5 197.476 17.5H195.76V20.26H197.476ZM207.258 25.144C206.418 25.144 205.654 24.944 204.966 24.544C204.278 24.144 203.738 23.592 203.346 22.888C202.954 22.184 202.758 21.396 202.758 20.524C202.758 19.652 202.95 18.864 203.334 18.16C203.726 17.456 204.258 16.908 204.93 16.516C205.61 16.116 206.374 15.916 207.222 15.916C207.838 15.916 208.402 16.024 208.914 16.24C209.426 16.448 209.858 16.732 210.21 17.092C210.57 17.444 210.83 17.836 210.99 18.268L209.538 18.964C209.362 18.492 209.07 18.116 208.662 17.836C208.262 17.548 207.782 17.404 207.222 17.404C206.67 17.404 206.178 17.536 205.746 17.8C205.314 18.056 204.978 18.42 204.738 18.892C204.506 19.364 204.39 19.908 204.39 20.524C204.39 21.14 204.51 21.688 204.75 22.168C204.998 22.64 205.338 23.008 205.77 23.272C206.21 23.528 206.706 23.656 207.258 23.656C207.714 23.656 208.134 23.564 208.518 23.38C208.91 23.196 209.218 22.936 209.442 22.6C209.674 22.264 209.79 21.876 209.79 21.436V21.4H207.222V20.02H211.422V20.92C211.422 21.808 211.226 22.572 210.834 23.212C210.45 23.844 209.938 24.324 209.298 24.652C208.666 24.98 207.986 25.144 207.258 25.144ZM213.673 16.06H219.613V17.5H215.305V19.792H219.373V21.232H215.305V23.56H219.613V25H213.673V16.06ZM221.77 16.06H223.042L227.302 21.796V16.06H228.934V25H227.65L223.402 19.156V25H221.77V16.06ZM235.824 25.144C234.984 25.144 234.224 24.944 233.544 24.544C232.864 24.144 232.328 23.592 231.936 22.888C231.552 22.184 231.36 21.396 231.36 20.524C231.36 19.652 231.552 18.864 231.936 18.16C232.328 17.456 232.86 16.908 233.532 16.516C234.212 16.116 234.976 15.916 235.824 15.916C236.44 15.916 237.004 16.024 237.516 16.24C238.028 16.448 238.46 16.732 238.812 17.092C239.172 17.444 239.432 17.836 239.592 18.268L238.128 18.952C237.952 18.488 237.66 18.116 237.252 17.836C236.844 17.548 236.368 17.404 235.824 17.404C235.272 17.404 234.78 17.536 234.348 17.8C233.916 18.056 233.58 18.42 233.34 18.892C233.108 19.364 232.992 19.908 232.992 20.524C232.992 21.14 233.108 21.688 233.34 22.168C233.58 22.64 233.916 23.008 234.348 23.272C234.78 23.528 235.272 23.656 235.824 23.656C236.368 23.656 236.844 23.516 237.252 23.236C237.66 22.948 237.952 22.572 238.128 22.108L239.592 22.792C239.432 23.224 239.172 23.62 238.812 23.98C238.46 24.332 238.028 24.616 237.516 24.832C237.004 25.04 236.44 25.144 235.824 25.144ZM244.04 21.04L241.028 16.06H242.888L244.856 19.384L246.824 16.06H248.684L245.684 21.028V25H244.04V21.04Z" fill="#583FBC"/>
<rect x="1" y="1" width="64" height="64" rx="16" fill="white" fill-opacity="0.2" stroke="url(#paint0_linear_401_121)"/>
<rect x="9" y="9" width="48" height="48" rx="16" fill="white"/>
<path fill-rule="evenodd" clip-rule="evenodd" d="M35.3558 23.0079C35.1328 22.976 34.9087 23.0419 34.7304 23.1838C34.5472 23.3277 34.4326 23.5356 34.4077 23.7684C34.355 24.2391 34.6946 24.6648 35.1646 24.7178C38.4063 25.0795 40.9259 27.6048 41.2904 30.8565C41.3392 31.2922 41.7047 31.621 42.1409 31.621C42.1738 31.621 42.2057 31.619 42.2385 31.615C42.4666 31.59 42.6697 31.4771 42.8132 31.2972C42.9556 31.1174 43.0203 30.8935 42.9944 30.6647C42.5403 26.6075 39.4002 23.4586 35.3558 23.0079ZM35.4181 26.4899C34.942 26.402 34.5048 26.7058 34.4142 27.1705C34.3236 27.6352 34.6283 28.0888 35.0914 28.1798C36.4857 28.4516 37.5623 29.5309 37.8351 30.9299V30.9309C37.9128 31.3336 38.2674 31.6264 38.6757 31.6264C38.7305 31.6264 38.7852 31.6214 38.841 31.6114C39.3041 31.5185 39.6088 31.0658 39.5182 30.6001C39.1109 28.5106 37.5025 26.8967 35.4181 26.4899ZM37.0001 36.0905C37.4515 35.8302 37.9615 35.5362 38.6047 35.673C39.1873 35.7959 41.1731 37.4078 41.7169 37.9665C42.0734 38.3322 42.2716 38.7099 42.3025 39.0877C42.3562 40.5697 40.3425 42.2615 39.976 42.4724C39.489 42.8231 38.9224 43 38.286 43C37.6357 43 36.9106 42.8151 36.1199 42.4464C31.8296 40.6556 25.2755 34.231 23.5427 29.9739C22.8236 28.389 22.8186 27.0819 23.5307 26.0996C23.8145 25.6389 25.4329 23.7132 26.8819 23.7742C27.2673 23.8072 27.6418 24.005 28.0093 24.3648C28.565 24.9094 30.1365 26.9011 30.258 27.4857C30.3925 28.1352 30.0977 28.6519 29.8358 29.1055C29.7799 29.2031 29.7046 29.3188 29.6222 29.4456C29.3092 29.9268 28.8926 30.5674 29.04 30.9763C30.0967 33.5705 32.5376 35.8339 35.133 36.8972C35.5343 37.0431 36.1745 36.6235 36.6542 36.3092C36.7791 36.2273 36.8932 36.1525 36.9893 36.0967L37.0001 36.0905Z" fill="#583FBC"/>
<defs>
<linearGradient id="paint0_linear_401_121" x1="1" y1="1" x2="65" y2="65" gradientUnits="userSpaceOnUse">
<stop stop-color="white"/>
<stop offset="1" stop-color="white" stop-opacity="0"/>
</linearGradient>
</defs>
</svg>
