<svg width="559" height="118" viewBox="0 0 559 118" fill="none" xmlns="http://www.w3.org/2000/svg">
<path d="M153.341 29.4425H174.847C181.868 29.4425 188.033 30.8585 193.343 33.6905C198.653 36.4635 202.754 40.3575 205.645 45.3725C208.536 50.3285 209.981 55.9925 209.981 62.3645C209.981 68.7365 208.536 74.43 205.645 79.445C202.754 84.401 198.624 88.295 193.255 91.127C187.945 93.959 181.809 95.375 174.847 95.375H153.341V29.4425ZM175.201 83.4275C179.449 83.4275 183.166 82.572 186.352 80.861C189.538 79.15 191.986 76.7015 193.697 73.5155C195.408 70.3295 196.263 66.6125 196.263 62.3645C196.263 58.1165 195.408 54.429 193.697 51.302C191.986 48.116 189.538 45.6675 186.352 43.9565C183.166 42.2455 179.449 41.39 175.201 41.39H167.059V83.4275H175.201ZM239.297 96.437C234.341 96.437 229.946 95.316 226.111 93.074C222.276 90.832 219.296 87.7935 217.172 83.9585C215.107 80.0645 214.075 75.787 214.075 71.126C214.075 66.406 215.137 62.1285 217.261 58.2935C219.385 54.4585 222.305 51.4495 226.022 49.2665C229.739 47.0835 233.869 45.992 238.412 45.992C243.368 45.992 247.646 47.0245 251.245 49.0895C254.844 51.1545 257.587 54.016 259.475 57.674C261.363 61.273 262.307 65.3145 262.307 69.7985C262.307 71.9815 262.101 73.6925 261.688 74.9315H227.881C228.294 77.9995 229.503 80.448 231.509 82.277C233.574 84.047 236.229 84.932 239.474 84.932C241.775 84.932 243.781 84.46 245.492 83.516C247.203 82.572 248.531 81.274 249.475 79.622L260.095 84.6665C258.62 88.2065 255.994 91.068 252.218 93.251C248.501 95.375 244.194 96.437 239.297 96.437ZM248.236 65.1965C247.941 62.6005 246.908 60.5355 245.138 59.0015C243.368 57.4085 241.126 56.612 238.412 56.612C235.757 56.612 233.515 57.3495 231.686 58.8245C229.916 60.2995 228.736 62.4235 228.146 65.1965H248.236ZM268.354 47.054H280.744V52.895C281.983 50.594 283.753 48.883 286.054 47.762C288.414 46.582 291.158 45.992 294.285 45.992C297.884 45.992 301.07 46.759 303.843 48.293C306.616 49.827 308.769 51.9805 310.303 54.7535C311.837 57.5265 312.604 60.7125 312.604 64.3115V95.375H299.329V67.1435C299.329 64.3705 298.503 62.158 296.851 60.506C295.258 58.795 293.134 57.9395 290.479 57.9395C287.824 57.9395 285.671 58.795 284.019 60.506C282.426 62.158 281.629 64.3705 281.629 67.1435V95.375H268.354V47.054ZM342.839 95.906C336.998 95.906 332.455 94.3425 329.21 91.2155C326.024 88.0295 324.431 83.6045 324.431 77.9405V58.559H316.289V47.054H316.731C319.209 47.054 321.097 46.4345 322.395 45.1955C323.752 43.9565 324.431 42.098 324.431 39.62V36.08H337.706V47.054H349.034V58.559H337.706V77.0555C337.706 79.5335 338.384 81.392 339.741 82.631C341.098 83.811 343.163 84.401 345.936 84.401C346.762 84.401 347.795 84.3125 349.034 84.1355V95.4635C347.087 95.7585 345.022 95.906 342.839 95.906ZM369.999 96.437C364.748 96.437 360.618 95.198 357.609 92.72C354.6 90.242 353.096 86.82 353.096 82.454C353.096 78.324 354.512 74.961 357.344 72.365C360.235 69.71 364.542 67.9105 370.265 66.9665L383.628 64.8425V63.515C383.628 61.686 382.891 60.152 381.416 58.913C379.941 57.674 377.994 57.0545 375.575 57.0545C373.215 57.0545 371.12 57.7035 369.291 59.0015C367.521 60.2405 366.223 61.9515 365.397 64.1345L354.777 59.09C356.193 55.078 358.819 51.892 362.654 49.532C366.548 47.172 371.061 45.992 376.194 45.992C380.206 45.992 383.776 46.7295 386.903 48.2045C390.089 49.6795 392.537 51.7445 394.248 54.3995C396.018 57.0545 396.903 60.093 396.903 63.515V95.375H384.513V90.8615C382.625 92.7495 380.501 94.1655 378.141 95.1095C375.781 95.9945 373.067 96.437 369.999 96.437ZM366.813 82.0115C366.813 83.4865 367.344 84.637 368.406 85.463C369.527 86.289 370.943 86.702 372.654 86.702C375.899 86.702 378.525 85.699 380.531 83.693C382.596 81.628 383.628 79.091 383.628 76.082V74.5775L372.654 76.5245C370.707 76.8785 369.232 77.498 368.229 78.383C367.285 79.268 366.813 80.4775 366.813 82.0115ZM404.869 28.3805H418.144V95.375H404.869V28.3805ZM426.088 47.054H439.363V95.375H426.088V47.054ZM425.292 33.425C425.292 31.006 425.941 29.177 427.239 27.938C428.537 26.64 430.366 25.991 432.726 25.991C435.145 25.991 436.974 26.64 438.213 27.938C439.511 29.177 440.16 31.006 440.16 33.425C440.16 35.844 439.511 37.7025 438.213 39.0005C436.974 40.2395 435.145 40.859 432.726 40.859C430.366 40.859 428.537 40.21 427.239 38.912C425.941 37.614 425.292 35.785 425.292 33.425ZM466.07 96.3485C460.996 96.3485 456.541 95.198 452.706 92.897C448.93 90.537 446.305 87.3215 444.83 83.2505L454.388 78.2945C455.686 80.7725 457.367 82.7195 459.432 84.1355C461.497 85.4925 463.798 86.171 466.335 86.171C468.282 86.171 469.787 85.7875 470.849 85.0205C471.911 84.2535 472.442 83.1915 472.442 81.8345C472.442 80.7725 472.029 79.858 471.203 79.091C470.377 78.324 469.138 77.793 467.486 77.498L459.255 75.905C455.243 74.961 452.087 73.191 449.786 70.595C447.544 67.94 446.423 64.813 446.423 61.214C446.423 58.205 447.19 55.55 448.724 53.249C450.317 50.948 452.529 49.178 455.361 47.939C458.252 46.641 461.556 45.992 465.273 45.992C469.757 45.992 473.71 47.054 477.132 49.178C480.554 51.243 483.062 54.1635 484.655 57.9395L475.008 62.8955C474.241 61.0075 472.943 59.503 471.114 58.382C469.285 57.202 467.25 56.612 465.008 56.612C463.179 56.612 461.763 56.966 460.76 57.674C459.757 58.382 459.255 59.3555 459.255 60.5945C459.255 61.5975 459.668 62.4825 460.494 63.2495C461.379 63.9575 462.766 64.5475 464.654 65.0195L472.353 66.6125C476.483 67.7335 479.669 69.5625 481.911 72.0995C484.153 74.5775 485.274 77.5865 485.274 81.1265C485.274 84.1355 484.478 86.7905 482.885 89.0915C481.292 91.3925 479.05 93.192 476.159 94.49C473.268 95.729 469.905 96.3485 466.07 96.3485ZM514.359 95.906C508.518 95.906 503.975 94.3425 500.73 91.2155C497.544 88.0295 495.951 83.6045 495.951 77.9405V58.559H487.809V47.054H488.252C490.73 47.054 492.618 46.4345 493.916 45.1955C495.273 43.9565 495.951 42.098 495.951 39.62V36.08H509.226V47.054H520.554V58.559H509.226V77.0555C509.226 79.5335 509.905 81.392 511.262 82.631C512.619 83.811 514.684 84.401 517.457 84.401C518.283 84.401 519.315 84.3125 520.554 84.1355V95.4635C518.607 95.7585 516.542 95.906 514.359 95.906Z" fill="#181945"/>
<path d="M539.838 95.375C537.773 95.375 536.033 94.667 534.617 93.251C533.201 91.835 532.493 90.0945 532.493 88.0295C532.493 85.9645 533.201 84.2535 534.617 82.8965C536.033 81.4805 537.773 80.7725 539.838 80.7725C541.903 80.7725 543.614 81.4805 544.971 82.8965C546.387 84.2535 547.095 85.9645 547.095 88.0295C547.095 90.1535 546.417 91.9235 545.06 93.3395C543.703 94.6965 541.962 95.375 539.838 95.375Z" fill="#583FBC"/>
<g clip-path="url(#clip0_401_1713)">
<path d="M88.465 56.5084L84.2518 39.5C83.9411 38.2576 82.9757 37.2855 81.7332 36.9782L73.0296 34.8008L81.733 32.6233C82.9618 32.3161 83.9273 31.3606 84.2446 30.1317L85.4196 25.5673C85.4938 25.287 85.5276 24.9259 85.5276 24.6355C85.5276 24.0075 85.3589 23.3898 85.028 22.8496C80.3354 15.0646 73.2863 10.6016 65.6836 10.6016C59.2083 10.6016 55.9539 12.8602 53.3408 14.6765C51.0587 16.263 49.2491 17.5156 44.9414 17.5156C40.6337 17.5156 38.8241 16.263 36.542 14.6765C33.9289 12.8602 30.6745 10.6016 24.1992 10.6016C10.8572 10.6016 0 24.5581 0 41.7148C0 76.8387 20.3709 111.19 21.2352 112.635C21.8563 113.674 22.984 114.312 24.1992 114.312C33.9492 114.312 36.1705 103.188 37.9598 94.2488C39.6614 85.7549 41.1534 79.7422 44.9414 79.7422C48.7294 79.7422 50.2214 85.7549 51.923 94.2488C53.7124 103.188 55.9336 114.312 65.6836 114.312C66.8989 114.312 68.0199 113.674 68.6477 112.635C69.2688 111.595 83.9814 86.8319 88.5256 57.8758C88.5931 57.4201 88.5728 56.9541 88.465 56.5084V56.5084Z" fill="url(#paint0_linear_401_1713)"/>
<path d="M115.38 31.4484L94.8052 26.4214L89.7816 6.30724C89.3968 4.76794 88.0126 3.6875 86.4258 3.6875C84.839 3.6875 83.4548 4.76794 83.0699 6.3107L78.06 26.4147L57.9322 31.4484C56.3929 31.8298 55.3125 33.214 55.3125 34.8008C55.3125 36.3876 56.3929 37.7718 57.9322 38.1532L78.0397 43.1802L83.0766 63.3181C83.4684 64.8472 84.8459 65.9141 86.4258 65.9141H86.4394C88.0192 65.9074 89.3968 64.8304 89.7816 63.2943L94.8052 43.1802L115.38 38.1532C116.92 37.7718 118 36.3876 118 34.8008C118 33.214 116.92 31.8298 115.38 31.4484V31.4484Z" fill="#7B55EC"/>
</g>
<defs>
<linearGradient id="paint0_linear_401_1713" x1="44.2823" y1="114.312" x2="44.2823" y2="10.6016" gradientUnits="userSpaceOnUse">
<stop stop-color="#ADDCFF"/>
<stop offset="0.5028" stop-color="#EAF6FF"/>
<stop offset="1" stop-color="#EAF6FF"/>
</linearGradient>
<clipPath id="clip0_401_1713">
<rect width="118" height="118" fill="white"/>
</clipPath>
</defs>
</svg>
